<?xml version="1.0" encoding="UTF-8"?>
<svg id="Layer_1" xmlns="http://www.w3.org/2000/svg" xmlns:xlink="http://www.w3.org/1999/xlink" viewBox="0 0 1024.66 562.58">
  <defs>
    <style>
      .cls-1, .cls-2 {
        fill: none;
      }

      .cls-3 {
        font-size: 36px;
        letter-spacing: -.02em;
      }

      .cls-3, .cls-4, .cls-5, .cls-6, .cls-7 {
        fill: #231f20;
      }

      .cls-3, .cls-5, .cls-6, .cls-8, .cls-9 {
        font-family: ArialMT, Arial;
      }

      .cls-10, .cls-11, .cls-12, .cls-13, .cls-14, .cls-15, .cls-16, .cls-17, .cls-18, .cls-19, .cls-20, .cls-21, .cls-22, .cls-23, .cls-24, .cls-25 {
        isolation: isolate;
      }

      .cls-10, .cls-19 {
        fill: #503c81;
      }

      .cls-26, .cls-2, .cls-27, .cls-28, .cls-29 {
        stroke-miterlimit: 10;
      }

      .cls-26, .cls-2, .cls-29 {
        stroke: #000001;
      }

      .cls-26, .cls-30, .cls-28 {
        fill: #e78424;
      }

      .cls-26, .cls-27, .cls-28, .cls-29 {
        stroke-width: 2px;
      }

      .cls-31, .cls-22 {
        fill: #59afde;
      }

      .cls-11, .cls-32 {
        fill: #82d4f1;
      }

      .cls-12 {
        fill: #21a8e0;
      }

      .cls-13 {
        fill: #d5533a;
      }

      .cls-14 {
        fill: #484787;
      }

      .cls-33, .cls-23 {
        fill: #e88424;
      }

      .cls-5 {
        font-size: 24px;
      }

      .cls-6, .cls-7 {
        font-size: 12px;
      }

      .cls-15 {
        fill: #574689;
      }

      .cls-2 {
        stroke-width: .5px;
      }

      .cls-2, .cls-28, .cls-29 {
        fill-rule: evenodd;
      }

      .cls-8 {
        fill: #000001;
        letter-spacing: 0em;
      }

      .cls-8, .cls-9 {
        font-size: 15px;
      }

      .cls-34 {
        clip-path: url(#clippath-1);
      }

      .cls-35 {
        clip-path: url(#clippath-2);
      }

      .cls-36 {
        font-size: 42.86px;
      }

      .cls-36, .cls-7 {
        font-family: MyriadPro-Regular, 'Myriad Pro';
      }

      .cls-36, .cls-37 {
        fill: #fff;
      }

      .cls-38 {
        fill: #1fa9e1;
      }

      .cls-39 {
        letter-spacing: 2.72em;
      }

      .cls-17 {
        fill: #5a3f48;
      }

      .cls-18, .cls-19 {
        mix-blend-mode: multiply;
      }

      .cls-18, .cls-21 {
        fill: #ec5539;
      }

      .cls-40 {
        letter-spacing: 0em;
      }

      .cls-20 {
        fill: #a0d8f2;
      }

      .cls-27 {
        fill: #442d7c;
        stroke: #452d7c;
      }

      .cls-41 {
        letter-spacing: 0em;
      }

      .cls-28 {
        stroke: #e68425;
      }

      .cls-24 {
        fill: #3c4389;
      }

      .cls-42 {
        letter-spacing: -.07em;
      }

      .cls-29 {
        fill: #ec4924;
      }

      .cls-43 {
        letter-spacing: -.06em;
      }

      .cls-44 {
        letter-spacing: -.01em;
      }

      .cls-45 {
        letter-spacing: 0em;
      }

      .cls-25 {
        fill: #e06b4f;
      }

      .cls-46 {
        clip-path: url(#clippath);
      }

      .cls-9 {
        fill: #f1f2f2;
        letter-spacing: 0em;
      }

      .cls-47 {
        letter-spacing: 0em;
      }
    </style>
    <clipPath id="clippath">
      <path class="cls-31" d="M373.36,235.16c-.85,11.78,8,22.02,19.78,22.87.64.05,1.28.06,1.92.05,11.83.19,21.58-9.24,21.77-21.06.01-.62,0-1.24-.05-1.86-1.54-36.22-1.54-72.94,0-109.14.85-11.79-8.01-22.04-19.8-22.89-.64-.05-1.28-.06-1.92-.05-11.79-.22-21.53,9.16-21.75,20.96-.01.65,0,1.31.05,1.96,1.54,36.22,1.54,72.94,0,109.14v.02Z"/>
    </clipPath>
    <clipPath id="clippath-1">
      <path class="cls-38" d="M320.27,235.16c-.85,11.78,8,22.02,19.78,22.87.64.05,1.28.06,1.92.05,11.83.19,21.58-9.24,21.77-21.06.01-.62,0-1.24-.05-1.86-1.54-36.22-1.54-72.94,0-109.14.85-11.79-8.01-22.04-19.8-22.89-.64-.05-1.28-.06-1.92-.05-11.79-.22-21.53,9.16-21.75,20.96-.01.65,0,1.31.05,1.96,1.54,36.22,1.54,72.94,0,109.14v.02Z"/>
    </clipPath>
    <clipPath id="clippath-2">
      <path class="cls-1" d="M78.41,219.64c-.74,9.62,6.92,17.99,17.1,18.69.55.04,1.11.05,1.66.04,10.23.16,18.66-7.55,18.82-17.22,0-.51,0-1.01-.04-1.52-1.33-29.6-1.33-59.61,0-89.2.74-9.63-6.93-18.01-17.12-18.71-.55-.04-1.11-.05-1.66-.04-10.2-.18-18.62,7.49-18.81,17.13-.01.53,0,1.07.05,1.6,1.33,29.6,1.33,59.61,0,89.2v.02Z"/>
    </clipPath>
  </defs>
  <rect class="cls-37" x="46.52" y="99.68" width="957.63" height="86.94"/>
  <rect class="cls-4" x="48.93" y="181.06" width="955.94" height="79.91"/>
  <path class="cls-20" d="M469.87,126c.85-11.78-8-22.02-19.78-22.87-.65-.05-1.29-.06-1.94-.05-11.79-.22-21.53,9.16-21.75,20.96-.01.65,0,1.31.05,1.96,1.54,36.22,1.54,72.94,0,109.14-.86,11.78,7.98,22.02,19.76,22.89.65.05,1.29.07,1.94.05,11.83.19,21.58-9.24,21.77-21.06.01-.62,0-1.24-.05-1.86-1.54-36.22-1.54-72.94,0-109.14v-.02Z"/>
  <g class="cls-16">
    <path class="cls-31" d="M373.36,235.16c-.85,11.78,8,22.02,19.78,22.87.64.05,1.28.06,1.92.05,11.83.19,21.58-9.24,21.77-21.06.01-.62,0-1.24-.05-1.86-1.54-36.22-1.54-72.94,0-109.14.85-11.79-8.01-22.04-19.8-22.89-.64-.05-1.28-.06-1.92-.05-11.79-.22-21.53,9.16-21.75,20.96-.01.65,0,1.31.05,1.96,1.54,36.22,1.54,72.94,0,109.14v.02Z"/>
    <g class="cls-46">
      <g>
        <circle class="cls-31" cx="403.6" cy="249.4" r="11.76"/>
        <circle class="cls-31" cx="421.76" cy="203" r="11.76"/>
        <circle class="cls-31" cx="394.44" cy="111.82" r="11.08"/>
        <circle class="cls-31" cx="409.38" cy="224.66" r="7.18"/>
        <path class="cls-31" d="M373.74,187.56c3.97,0,7.18,3.21,7.18,7.18,0,3.97-3.21,7.18-7.18,7.18-3.97,0-7.18-3.21-7.18-7.18s3.21-7.18,7.18-7.18Z"/>
        <circle class="cls-31" cx="412.06" cy="142.18" r="7.18"/>
        <circle class="cls-31" cx="391.82" cy="176.4" r="9.06"/>
        <circle class="cls-31" cx="377.92" cy="214.76" r="4.74"/>
        <circle class="cls-31" cx="382.56" cy="241.7" r="4.74"/>
        <circle class="cls-31" cx="380.64" cy="234.9" r="4.74"/>
        <path class="cls-31" d="M406.02,198.32c-3.66,7.7-7,15.58-10,23.56-1.04,3.03-4.34,4.64-7.37,3.61-.16-.05-.32-.12-.47-.19-2.96-1.19-4.39-4.56-3.2-7.52.07-.16.14-.32.22-.48,3.66-7.7,6.98-15.58,10-23.56,1.03-3.02,4.31-4.64,7.33-3.61.16.06.33.12.49.19,2.97,1.2,4.4,4.58,3.2,7.55-.06.15-.13.3-.2.45Z"/>
      </g>
    </g>
  </g>
  <path class="cls-23" d="M1000.76,126.15c.81-11.99-8.25-22.37-20.24-23.18-11.99-.81-22.37,8.25-23.18,20.24-.07.98-.07,1.97,0,2.95,1.52,36.22,1.52,72.94,0,109.14-.86,11.78,7.98,22.02,19.76,22.89.65.05,1.29.07,1.94.05,11.83.19,21.58-9.24,21.77-21.06.01-.62,0-1.24-.05-1.86-1.54-36.22-1.54-72.94,0-109.14v-.02Z"/>
  <path class="cls-25" d="M819.09,103.13c-4.27,0-8.45,1.24-12.03,3.57-1.36.91-2.61,1.97-3.73,3.17-4.08,4.42-6.14,10.32-5.71,16.32,1.82,36.19,2.17,72.97.88,109.11-.53,12.01,8.77,22.17,20.77,22.7,12.01.53,22.17-8.77,22.7-20.77.03-.74.03-1.49-.02-2.24-1.83-36.21-2.17-72.97-.89-109.13.76-11.78-8.18-21.95-19.97-22.7-.67-.04-1.34-.05-2.01-.03Z"/>
  <path class="cls-24" d="M576.11,125.9c.4-6-1.7-11.9-5.81-16.29-1.13-1.19-2.39-2.25-3.77-3.16-3.6-2.33-7.81-3.56-12.1-3.53-11.82-.22-21.57,9.18-21.8,21-.01.63,0,1.26.05,1.9,1.5,36.24,1.53,73.01-.12,109.16-.84,11.99,8.2,22.39,20.19,23.22,11.99.84,22.39-8.2,23.22-20.19.07-.99.07-1.98,0-2.97-1.49-36.36-1.45-72.77.12-109.13Z"/>
  <path class="cls-11" d="M522.96,126c.85-11.78-8-22.02-19.78-22.87-.65-.05-1.29-.06-1.94-.05-11.79-.22-21.53,9.16-21.75,20.96-.01.65,0,1.31.05,1.96,1.54,36.22,1.54,72.94,0,109.14-.86,11.78,7.98,22.02,19.76,22.89.65.05,1.29.07,1.94.05,11.83.19,21.58-9.24,21.77-21.06.01-.62,0-1.24-.05-1.86-1.54-36.22-1.54-72.94,0-109.14v-.02Z"/>
  <g class="cls-16">
    <path class="cls-38" d="M320.27,235.16c-.85,11.78,8,22.02,19.78,22.87.64.05,1.28.06,1.92.05,11.83.19,21.58-9.24,21.77-21.06.01-.62,0-1.24-.05-1.86-1.54-36.22-1.54-72.94,0-109.14.85-11.79-8.01-22.04-19.8-22.89-.64-.05-1.28-.06-1.92-.05-11.79-.22-21.53,9.16-21.75,20.96-.01.65,0,1.31.05,1.96,1.54,36.22,1.54,72.94,0,109.14v.02Z"/>
    <g class="cls-34">
      <g>
        <circle class="cls-38" cx="350.51" cy="249.4" r="11.76"/>
        <circle class="cls-38" cx="368.67" cy="203" r="11.76"/>
        <circle class="cls-38" cx="341.35" cy="111.82" r="11.08"/>
        <circle class="cls-38" cx="356.29" cy="224.66" r="7.18"/>
        <circle class="cls-38" cx="320.65" cy="194.74" r="7.18"/>
        <path class="cls-38" d="M358.97,135c3.97,0,7.18,3.21,7.18,7.18,0,3.97-3.21,7.18-7.18,7.18-3.97,0-7.18-3.21-7.18-7.18,0-3.97,3.21-7.18,7.18-7.18Z"/>
        <path class="cls-38" d="M338.73,167.34c5,0,9.06,4.06,9.06,9.06s-4.06,9.06-9.06,9.06c-5,0-9.06-4.06-9.06-9.06s4.06-9.06,9.06-9.06Z"/>
        <circle class="cls-38" cx="324.83" cy="214.76" r="4.74"/>
        <circle class="cls-38" cx="329.47" cy="241.7" r="4.74"/>
        <circle class="cls-38" cx="327.55" cy="234.9" r="4.74"/>
        <path class="cls-38" d="M352.93,198.32c-3.66,7.7-7,15.58-10,23.56-1.04,3.03-4.34,4.64-7.37,3.61-.16-.05-.32-.12-.47-.19-2.96-1.19-4.39-4.56-3.2-7.52.07-.16.14-.32.22-.48,3.66-7.7,6.98-15.58,10-23.56,1.03-3.02,4.31-4.64,7.33-3.61.16.06.33.12.49.19,2.97,1.2,4.4,4.58,3.2,7.55-.06.15-.13.3-.2.45Z"/>
      </g>
    </g>
  </g>
  <path class="cls-10" d="M735.38,125.9c.4-6-1.7-11.9-5.81-16.29-1.13-1.19-2.39-2.25-3.77-3.16-3.6-2.33-7.81-3.56-12.1-3.53-11.82-.22-21.57,9.18-21.8,21-.01.63,0,1.26.05,1.9,1.5,36.24,1.53,73.01-.12,109.16-.84,11.99,8.2,22.39,20.19,23.22,11.99.84,22.39-8.2,23.22-20.19.07-.99.07-1.98,0-2.97-1.49-36.36-1.45-72.77.12-109.13Z"/>
  <path class="cls-14" d="M629.2,125.9c.4-6-1.7-11.9-5.81-16.29-1.13-1.19-2.39-2.25-3.77-3.16-3.6-2.33-7.81-3.56-12.1-3.53-11.82-.22-21.57,9.18-21.8,21-.01.63,0,1.26.05,1.9,1.5,36.24,1.53,73.01-.12,109.16-.84,11.99,8.2,22.39,20.19,23.22,11.99.84,22.39-8.2,23.22-20.19.07-.99.07-1.98,0-2.97-1.49-36.36-1.45-72.77.12-109.13Z"/>
  <path class="cls-15" d="M682.29,125.9c.4-6-1.7-11.9-5.81-16.29-1.13-1.19-2.39-2.25-3.77-3.16-3.6-2.33-7.81-3.56-12.1-3.53-11.82-.22-21.57,9.18-21.8,21-.01.63,0,1.26.05,1.9,1.5,36.24,1.53,73.01-.12,109.16-.84,11.99,8.2,22.39,20.19,23.22,11.99.84,22.39-8.2,23.22-20.19.07-.99.07-1.98,0-2.97-1.49-36.36-1.45-72.77.12-109.13Z"/>
  <path class="cls-17" d="M788.47,125.9c.4-6-1.7-11.9-5.81-16.29-1.13-1.19-2.39-2.25-3.77-3.16-3.6-2.33-7.81-3.56-12.1-3.53-11.82-.22-21.57,9.18-21.8,21-.01.63,0,1.26.05,1.9,1.5,36.24,1.53,73.01-.12,109.16-.84,11.99,8.2,22.39,20.19,23.22,11.99.84,22.39-8.2,23.22-20.19.07-.99.07-1.98,0-2.97-1.49-36.36-1.45-72.77.12-109.13Z"/>
  <path class="cls-13" d="M872.18,103.13c-4.27,0-8.45,1.24-12.03,3.57-1.36.91-2.61,1.97-3.73,3.17-4.08,4.42-6.14,10.32-5.71,16.32,1.82,36.19,2.17,72.97.88,109.11-.53,12.01,8.77,22.17,20.77,22.7,12.01.53,22.17-8.77,22.7-20.77.03-.74.03-1.49-.02-2.24-1.83-36.21-2.17-72.97-.89-109.13.76-11.78-8.18-21.95-19.97-22.7-.67-.04-1.34-.05-2.01-.03Z"/>
  <path class="cls-21" d="M925.27,103.13c-4.27,0-8.45,1.24-12.03,3.57-1.36.91-2.61,1.97-3.73,3.17-4.08,4.42-6.14,10.32-5.71,16.32,1.82,36.19,2.17,72.97.88,109.11-.53,12.01,8.77,22.17,20.77,22.7,12.01.53,22.17-8.77,22.7-20.77.03-.74.03-1.49-.02-2.24-1.83-36.21-2.17-72.97-.89-109.13.76-11.78-8.18-21.95-19.97-22.7-.67-.04-1.34-.05-2.01-.03Z"/>
  <g class="cls-16">
    <g id="Layer_2">
      <g id="Layer_1-2">
        <g id="NMDC_Lockup_2_Horiz_CLR">
          <path class="cls-32" d="M115.95,130.43c.74-9.63-6.92-17.99-17.1-18.69-.56-.04-1.12-.05-1.68-.04-10.2-.18-18.62,7.49-18.81,17.13-.01.53,0,1.07.05,1.6,1.33,29.6,1.33,59.61,0,89.2-.75,9.62,6.9,18,17.09,18.7.56.04,1.12.05,1.68.04,10.23.16,18.66-7.55,18.82-17.22,0-.51,0-1.01-.04-1.52-1.33-29.6-1.33-59.61,0-89.2v-.02Z"/>
          <g class="cls-35">
            <g>
              <ellipse class="cls-38" cx="104.56" cy="231.28" rx="10.17" ry="9.61"/>
              <ellipse class="cls-38" cx="120.26" cy="193.36" rx="10.17" ry="9.61"/>
              <ellipse class="cls-38" cx="96.63" cy="118.84" rx="9.58" ry="9.06"/>
              <ellipse class="cls-38" cx="109.55" cy="211.06" rx="6.21" ry="5.87"/>
              <ellipse class="cls-38" cx="78.74" cy="186.61" rx="6.21" ry="5.87"/>
              <ellipse class="cls-38" cx="111.87" cy="143.65" rx="6.21" ry="5.87"/>
              <ellipse class="cls-38" cx="94.37" cy="171.62" rx="7.83" ry="7.4"/>
              <ellipse class="cls-38" cx="82.35" cy="202.97" rx="4.1" ry="3.87"/>
              <ellipse class="cls-38" cx="86.36" cy="224.98" rx="4.1" ry="3.87"/>
              <ellipse class="cls-38" cx="84.7" cy="219.43" rx="4.1" ry="3.87"/>
              <path class="cls-38" d="M106.65,189.53c-3.16,6.29-6.05,12.73-8.65,19.25-.9,2.48-3.75,3.8-6.37,2.95-.14-.04-.27-.1-.41-.15-2.56-.98-3.8-3.73-2.77-6.15.06-.13.12-.26.19-.39,3.16-6.29,6.04-12.73,8.65-19.25.89-2.47,3.73-3.79,6.34-2.95.14.05.28.1.42.16,2.57.98,3.81,3.74,2.77,6.17-.05.12-.11.25-.18.37Z"/>
            </g>
          </g>
          <path class="cls-33" d="M221.14,130.43c.7-9.8-7.13-18.28-17.5-18.95-10.37-.67-19.34,6.74-20.05,16.54-.06.8-.06,1.61,0,2.41,1.31,29.6,1.31,59.61,0,89.2-.75,9.62,6.9,18,17.09,18.7.56.04,1.12.05,1.68.04,10.23.16,18.66-7.55,18.82-17.22,0-.51,0-1.01-.04-1.52-1.33-29.6-1.33-59.61,0-89.2v-.02Z"/>
          <path class="cls-19" d="M113.32,120.72c-2.55-4.29-6.86-7.38-11.92-8.55-1.38-.31-2.8-.47-4.22-.47-3.71.01-7.34,1.05-10.43,2.99-8.66,5.13-11.27,15.93-5.84,24.11.29.44.6.86.93,1.27,18.23,24.13,35.64,49.27,51.55,74.73,5.07,8.58,16.53,11.65,25.6,6.86,9.07-4.79,12.32-15.62,7.26-24.2-.42-.71-.88-1.38-1.4-2.03-18.28-24.21-35.48-49.14-51.54-74.71Z"/>
          <path class="cls-18" d="M212.49,114.69c-3.08-1.93-6.68-2.98-10.38-3.01-1.42,0-2.83.16-4.2.47-5.05,1.17-9.36,4.25-11.92,8.53-16,25.47-33.33,50.67-51.54,74.7-6.13,7.93-4.29,19.06,4.11,24.85,8.39,5.79,20.17,4.05,26.29-3.88.38-.49.73-1,1.06-1.53,16-25.48,33.33-50.67,51.54-74.71,6.18-7.68,4.6-18.64-3.53-24.48-.46-.33-.94-.64-1.43-.93Z"/>
        </g>
      </g>
    </g>
  </g>
  <rect class="cls-12" x="328.04" y="271.64" width="27.89" height="54.22"/>
  <rect class="cls-22" x="381.13" y="271.64" width="27.89" height="54.22"/>
  <rect class="cls-20" x="434.22" y="271.64" width="27.89" height="54.22"/>
  <rect class="cls-11" x="487.31" y="271.64" width="27.89" height="54.22"/>
  <rect class="cls-24" x="540.4" y="271.64" width="27.89" height="54.22"/>
  <rect class="cls-14" x="593.48" y="271.64" width="27.89" height="54.22"/>
  <rect class="cls-15" x="646.57" y="271.64" width="27.89" height="54.22"/>
  <rect class="cls-10" x="699.66" y="271.64" width="27.89" height="54.22"/>
  <rect class="cls-17" x="752.75" y="271.64" width="27.89" height="54.22"/>
  <rect class="cls-25" x="805.84" y="271.64" width="27.89" height="54.22"/>
  <rect class="cls-13" x="858.93" y="271.64" width="27.89" height="54.22"/>
  <rect class="cls-21" x="912.02" y="271.64" width="27.89" height="54.22"/>
  <rect class="cls-23" x="965.11" y="271.64" width="27.89" height="54.22"/>
  <text class="cls-3" transform="translate(18.86 46.82)"><tspan x="0" y="0">Color Palette</tspan></text>
  <text class="cls-7" transform="translate(24.65 67.44)"><tspan class="cls-40" x="0" y="0">S</tspan><tspan class="cls-41" x="5.95" y="0">ampling f</tspan><tspan class="cls-45" x="53.63" y="0">r</tspan><tspan x="57.43" y="0">om logo will inhe</tspan><tspan class="cls-44" x="143.82" y="0">r</tspan><tspan x="147.62" y="0">et opaci</tspan><tspan class="cls-47" x="187.53" y="0">t</tspan><tspan x="191.61" y="0">y settings</tspan></text>
  <rect class="cls-27" x="132.42" y="375.59" width="57.6" height="57.6" rx="9.6" ry="9.6"/>
  <circle class="cls-26" cx="82.02" cy="404.39" r="28.8"/>
  <path class="cls-29" d="M127.82,404.73l-12.16,5.44c-.25.11-.52-.07-.52-.34v-10.88c0-.27.28-.45.52-.34l12.16,5.44c.29.13.29.55,0,.68Z"/>
  <text class="cls-6" transform="translate(49.28 466.91)"><tspan x="0" y="0">circle and square 0.8in measure with 2pt border</tspan><tspan x="0" y="14.4">blue background 0.25in radius corners</tspan><tspan class="cls-39" x="0" y="28.8">	</tspan><tspan x="36" y="28.8">size = 0.5in + width or height of workflow as group (highlight workflo</tspan><tspan class="cls-43" x="395.52" y="28.8">w</tspan><tspan x="403.52" y="28.8">, find size, change background size, center)</tspan><tspan x="0" y="43.2">0.05 in. between each object</tspan><tspan x="0" y="57.6">0.005, 0.01, or 0.025 in. between object and text depending on text</tspan><tspan x="0" y="72">Arial text </tspan><tspan class="cls-42" x="50.02" y="72">1</tspan><tspan x="55.8" y="72">1-15 pt center justified</tspan><tspan x="0" y="86.4">Export at 300 ppi fo PNG and also as SVG</tspan></text>
  <path class="cls-2" d="M259.3,356.58h-.31c-3,0-5.44,3.2-5.44,7.14v32.49c0,3.94-2.44,7.14-5.44,7.14,3,0,5.44,3.2,5.44,7.14v32.49c0,3.94,2.44,7.14,5.44,7.14h.31"/>
  <text class="cls-5" transform="translate(46.5 359.99)"><tspan x="0" y="0">Standard objects</tspan></text>
  <rect class="cls-32" x="308.45" y="335.6" width="244.8" height="122.4" rx="18" ry="18"/>
  <text class="cls-9" transform="translate(147.5 408.38)"><tspan x="0" y="0">task</tspan></text>
  <text class="cls-8" transform="translate(63.75 446.41)"><tspan x="0" y="0">Label</tspan></text>
  <g>
    <path class="cls-28" d="M820.25,436.79l9.01,20.15c.11.25-.07.52-.34.52h-18.03c-.27,0-.45-.28-.34-.52l9.01-20.15c.13-.29.55-.29.68,0Z"/>
    <g>
      <circle class="cls-30" cx="819.91" cy="488.11" r="36"/>
      <text class="cls-36" transform="translate(808.92 500.69)"><tspan x="0" y="0">1</tspan></text>
    </g>
  </g>
  <g>
    <path class="cls-28" d="M826.21,430.93l20.15-9.01c.25-.11.52.07.52.34v18.03c0,.27-.28.45-.52.34l-20.15-9.01c-.29-.13-.29-.55,0-.68Z"/>
    <g>
      <circle class="cls-30" cx="877.53" cy="431.27" r="36"/>
      <text class="cls-36" transform="translate(866.54 443.85)"><tspan x="0" y="0">1</tspan></text>
    </g>
  </g>
  <g>
    <path class="cls-28" d="M813.66,431.93l-20.15,9.01c-.25.11-.52-.07-.52-.34v-18.03c0-.27.28-.45.52-.34l20.15,9.01c.29.13.29.55,0,.68Z"/>
    <g>
      <circle class="cls-30" cx="762.34" cy="431.59" r="36"/>
      <text class="cls-36" transform="translate(751.34 444.16)"><tspan x="0" y="0">1</tspan></text>
    </g>
  </g>
  <g>
    <path class="cls-28" d="M819.78,424.67l-9.01-20.15c-.11-.25.07-.52.34-.52h18.03c.27,0,.45.28.34.52l-9.01,20.15c-.13.29-.55.29-.68,0Z"/>
    <g>
      <circle class="cls-30" cx="820.12" cy="373.35" r="36"/>
      <text class="cls-36" transform="translate(809.13 385.92)"><tspan x="0" y="0">1</tspan></text>
    </g>
  </g>
</svg>