<?xml version="1.0" encoding="UTF-8"?>
<svg id="Layer_1" xmlns="http://www.w3.org/2000/svg" viewBox="0 0 705.6 266.4">
  <defs>
    <style>
      .cls-1 {
        stroke: #8c75b5;
      }

      .cls-1, .cls-2, .cls-3, .cls-4, .cls-5, .cls-6, .cls-7, .cls-8, .cls-9, .cls-10, .cls-11, .cls-12, .cls-13, .cls-14, .cls-15, .cls-16, .cls-17, .cls-18, .cls-19, .cls-20 {
        fill: none;
      }

      .cls-1, .cls-2, .cls-3, .cls-4, .cls-5, .cls-6, .cls-7, .cls-8, .cls-9, .cls-10, .cls-11, .cls-12, .cls-13, .cls-14, .cls-15, .cls-16, .cls-17, .cls-18, .cls-20 {
        stroke-linejoin: round;
      }

      .cls-1, .cls-3, .cls-4, .cls-6, .cls-7, .cls-8, .cls-9, .cls-10, .cls-11, .cls-12, .cls-13, .cls-14, .cls-15, .cls-16, .cls-17, .cls-18 {
        stroke-width: 4.5px;
      }

      .cls-21 {
        fill: #b0b0b0;
      }

      .cls-21, .cls-22, .cls-23, .cls-24, .cls-25, .cls-26, .cls-27, .cls-19, .cls-28, .cls-29 {
        fill-rule: evenodd;
      }

      .cls-2, .cls-5, .cls-30, .cls-9, .cls-23, .cls-27, .cls-19, .cls-28 {
        stroke: #000001;
      }

      .cls-2, .cls-30, .cls-23, .cls-27, .cls-31 {
        stroke-width: 2px;
      }

      .cls-22 {
        fill: #757575;
      }

      .cls-3 {
        stroke: #8f7ab8;
      }

      .cls-4 {
        stroke: #575757;
      }

      .cls-5 {
        stroke-width: .25px;
      }

      .cls-30, .cls-32, .cls-23, .cls-27, .cls-19, .cls-28, .cls-31 {
        stroke-miterlimit: 10;
      }

      .cls-30, .cls-23 {
        fill: #e78424;
      }

      .cls-6 {
        stroke: #bc1e24;
      }

      .cls-7 {
        stroke: #c62026;
      }

      .cls-8 {
        stroke: #fec010;
      }

      .cls-10 {
        stroke: #93c954;
      }

      .cls-11 {
        stroke: #ed2024;
      }

      .cls-33 {
        font-size: 12px;
        letter-spacing: 0em;
      }

      .cls-33, .cls-34, .cls-35, .cls-36, .cls-37, .cls-38 {
        font-family: ArialMT, Arial;
      }

      .cls-33, .cls-39 {
        fill: #f1f2f2;
      }

      .cls-12 {
        stroke: #848585;
      }

      .cls-32 {
        fill: #524fa1;
        stroke: #524fa1;
        stroke-width: 3px;
      }

      .cls-34 {
        letter-spacing: 0em;
      }

      .cls-34, .cls-35 {
        font-size: 15px;
      }

      .cls-34, .cls-35, .cls-36, .cls-37, .cls-38 {
        fill: #000001;
      }

      .cls-13 {
        stroke: #692c90;
      }

      .cls-14 {
        stroke: #ed1c24;
      }

      .cls-15, .cls-20 {
        stroke: #191919;
      }

      .cls-16 {
        stroke: #bebdbd;
      }

      .cls-35 {
        letter-spacing: 0em;
      }

      .cls-24 {
        fill: #ababab;
      }

      .cls-25 {
        fill: #d5533a;
        isolation: isolate;
      }

      .cls-26 {
        fill: #1b1b1b;
      }

      .cls-17 {
        stroke: #323232;
      }

      .cls-36 {
        letter-spacing: -.02em;
      }

      .cls-36, .cls-37, .cls-38 {
        font-size: 11px;
      }

      .cls-27 {
        fill: #ec4924;
      }

      .cls-18 {
        stroke: #007aab;
      }

      .cls-28 {
        fill: #a3a3a3;
      }

      .cls-31 {
        fill: #00addc;
        stroke: #00addc;
      }

      .cls-40 {
        fill: #82d4f1;
      }

      .cls-37 {
        letter-spacing: -.02em;
      }

      .cls-29 {
        fill: #7b7b7b;
      }

      .cls-38 {
        letter-spacing: -.03em;
      }

      .cls-20 {
        stroke-width: .75px;
      }
    </style>
  </defs>
  <rect class="cls-40" x="0" y="0" width="705.6" height="266.4" rx="18" ry="18"/>
  <g>
    <text class="cls-34" transform="translate(499.29 31.02)"><tspan x="0" y="0">GFF</tspan></text>
    <g>
      <path class="cls-27" d="M325.95,82.91l-7.81,10.79c-.16.22-.49.2-.62-.03l-5.44-9.42c-.14-.23.02-.53.28-.56l13.25-1.37c.32-.03.53.33.34.59Z"/>
      <path class="cls-27" d="M326.11,128.38l-7.81-10.79c-.16-.22-.49-.2-.62.03l-5.44,9.42c-.14.23.02.53.28.56l13.25,1.37c.32.03.53-.33.34-.59Z"/>
    </g>
    <g>
      <path class="cls-25" d="M250.82,86.36c0-5.26,4.3-9.52,9.6-9.52h38.4c5.3,0,9.6,4.26,9.6,9.52v38.57c0,5.26-4.3,9.52-9.6,9.52h-38.4c-5.3,0-9.6-4.26-9.6-9.52v-38.57Z"/>
      <g>
        <path class="cls-39" d="M262.57,94.44v-8.59h1.17l4.51,6.74v-6.74h1.09v8.59h-1.17l-4.51-6.75v6.75h-1.09Z"/>
        <path class="cls-39" d="M271.19,94.44v-8.59h1.71l2.03,6.08c.19.57.32.99.41,1.27.1-.31.25-.77.46-1.38l2.06-5.98h1.53v8.59h-1.1v-7.19l-2.5,7.19h-1.03l-2.48-7.31v7.31h-1.1Z"/>
        <path class="cls-39" d="M281.2,94.44v-8.59h2.96c.67,0,1.18.04,1.53.12.49.11.91.32,1.26.62.45.38.79.87,1.02,1.47s.34,1.28.34,2.04c0,.65-.08,1.23-.23,1.73s-.35.92-.59,1.25-.5.59-.78.78-.62.33-1.03.43-.86.15-1.38.15h-3.1ZM282.34,93.43h1.83c.57,0,1.01-.05,1.33-.16s.58-.25.77-.45c.27-.27.48-.63.63-1.09s.23-1.01.23-1.66c0-.9-.15-1.59-.44-2.07s-.65-.81-1.08-.97c-.3-.12-.79-.18-1.47-.18h-1.8v6.56Z"/>
        <path class="cls-39" d="M295.97,91.43l1.14.29c-.24.93-.67,1.65-1.29,2.14s-1.38.74-2.27.74-1.68-.19-2.26-.57-1.02-.92-1.32-1.64-.45-1.48-.45-2.3c0-.89.17-1.67.51-2.34s.83-1.17,1.46-1.52,1.33-.52,2.08-.52c.86,0,1.58.22,2.17.66s.99,1.05,1.22,1.85l-1.12.26c-.2-.62-.49-1.08-.87-1.37s-.86-.43-1.43-.43c-.66,0-1.21.16-1.66.47s-.75.74-.93,1.27-.27,1.08-.27,1.65c0,.73.11,1.37.32,1.91s.54.95.99,1.22.94.4,1.46.4c.64,0,1.18-.18,1.62-.55s.74-.91.9-1.63Z"/>
        <path class="cls-39" d="M262.55,108.84v-8.59h1.71l2.03,6.08c.19.57.32.99.41,1.27.1-.31.25-.77.46-1.38l2.06-5.98h1.53v8.59h-1.1v-7.19l-2.5,7.19h-1.03l-2.48-7.31v7.31h-1.1Z"/>
        <path class="cls-39" d="M276.69,106.84l1.09.13c-.17.64-.49,1.13-.96,1.48s-1.06.53-1.78.53c-.91,0-1.63-.28-2.17-.84s-.8-1.35-.8-2.36.27-1.86.81-2.44,1.24-.87,2.1-.87,1.51.28,2.04.85.79,1.36.79,2.39c0,.06,0,.16,0,.28h-4.64c.04.68.23,1.21.58,1.57s.78.54,1.3.54c.39,0,.72-.1.99-.3s.49-.53.65-.97ZM273.22,105.13h3.47c-.05-.52-.18-.92-.4-1.18-.34-.41-.77-.61-1.31-.61-.48,0-.89.16-1.22.49s-.51.76-.55,1.3Z"/>
        <path class="cls-39" d="M281.38,107.9l.15.93c-.3.06-.56.09-.8.09-.38,0-.68-.06-.89-.18s-.36-.28-.45-.48-.13-.61-.13-1.25v-3.58h-.77v-.82h.77v-1.54l1.05-.63v2.17h1.06v.82h-1.06v3.64c0,.3.02.49.06.58s.1.15.18.21.2.08.36.08c.12,0,.27-.01.46-.04Z"/>
        <path class="cls-39" d="M286.45,108.08c-.39.33-.77.57-1.13.7s-.75.21-1.16.21c-.68,0-1.21-.17-1.58-.5s-.55-.76-.55-1.28c0-.3.07-.58.21-.83s.32-.45.54-.61.48-.27.76-.35c.21-.05.52-.11.94-.16.85-.1,1.48-.22,1.88-.36,0-.14,0-.24,0-.28,0-.43-.1-.73-.3-.91-.27-.24-.67-.36-1.2-.36-.5,0-.86.09-1.1.26s-.41.48-.52.92l-1.03-.14c.09-.44.25-.8.46-1.07s.53-.48.93-.63.88-.22,1.41-.22.96.06,1.29.19.58.28.73.47.27.43.33.72c.04.18.05.5.05.97v1.41c0,.98.02,1.6.07,1.86s.13.51.27.75h-1.1c-.11-.22-.18-.47-.21-.77ZM286.36,105.72c-.38.16-.96.29-1.72.4-.43.06-.74.13-.92.21s-.32.19-.42.34-.15.32-.15.5c0,.28.11.52.32.7s.52.28.93.28.77-.09,1.08-.27.55-.42.7-.73c.11-.24.17-.59.17-1.05v-.39Z"/>
        <path class="cls-39" d="M293.19,105.47v-1.01h3.64s0,3.18,0,3.18c-.56.45-1.13.78-1.73,1s-1.2.34-1.83.34c-.84,0-1.61-.18-2.3-.54s-1.21-.88-1.56-1.57-.53-1.45-.53-2.29.17-1.62.52-2.34.85-1.26,1.51-1.61,1.41-.53,2.27-.53c.62,0,1.18.1,1.68.3s.9.48,1.18.84.5.83.65,1.41l-1.03.28c-.13-.44-.29-.78-.48-1.03s-.46-.45-.82-.6-.75-.23-1.18-.23c-.52,0-.97.08-1.35.24s-.68.37-.92.62-.41.54-.54.85c-.22.53-.33,1.11-.33,1.73,0,.77.13,1.41.4,1.92s.65.9,1.15,1.15,1.04.38,1.61.38c.49,0,.97-.09,1.44-.28s.82-.39,1.07-.61v-1.6h-2.53Z"/>
        <path class="cls-39" d="M253.68,123.24l3.3-8.59h1.22l3.52,8.59h-1.29l-1-2.6h-3.59l-.94,2.6h-1.21ZM256.16,119.72h2.91l-.9-2.38c-.27-.72-.48-1.32-.61-1.78-.11.55-.26,1.1-.46,1.64l-.94,2.52Z"/>
        <path class="cls-39" d="M262.05,121.39l1.04-.16c.06.42.22.74.49.96s.64.33,1.12.33.84-.1,1.08-.3.35-.43.35-.69c0-.24-.1-.43-.31-.56-.14-.09-.5-.21-1.08-.36-.77-.2-1.31-.36-1.61-.51s-.53-.34-.68-.59-.23-.53-.23-.83c0-.28.06-.53.19-.77s.3-.43.52-.59c.16-.12.39-.22.67-.31s.59-.13.91-.13c.49,0,.92.07,1.29.21s.64.33.82.57.3.56.36.96l-1.03.14c-.05-.32-.18-.57-.41-.75s-.54-.27-.95-.27c-.48,0-.83.08-1.04.24s-.31.35-.31.56c0,.14.04.26.13.37.09.11.22.21.4.28.11.04.42.13.93.27.75.2,1.27.36,1.56.49s.53.31.69.55.25.54.25.9-.1.68-.31.99-.5.55-.89.72-.82.25-1.31.25c-.81,0-1.42-.17-1.85-.5s-.69-.83-.81-1.49Z"/>
        <path class="cls-39" d="M268.02,121.39l1.04-.16c.06.42.22.74.49.96s.64.33,1.12.33.84-.1,1.08-.3.35-.43.35-.69c0-.24-.1-.43-.31-.56-.14-.09-.5-.21-1.08-.36-.77-.2-1.31-.36-1.61-.51s-.53-.34-.68-.59-.23-.53-.23-.83c0-.28.06-.53.19-.77s.3-.43.52-.59c.16-.12.39-.22.67-.31s.59-.13.91-.13c.49,0,.92.07,1.29.21s.64.33.82.57.3.56.36.96l-1.03.14c-.05-.32-.18-.57-.41-.75s-.54-.27-.95-.27c-.48,0-.83.08-1.04.24s-.31.35-.31.56c0,.14.04.26.13.37.09.11.22.21.4.28.11.04.42.13.93.27.75.2,1.27.36,1.56.49s.53.31.69.55.25.54.25.9-.1.68-.31.99-.5.55-.89.72-.82.25-1.31.25c-.81,0-1.42-.17-1.85-.5s-.69-.83-.81-1.49Z"/>
        <path class="cls-39" d="M278.68,121.24l1.09.13c-.17.64-.49,1.13-.96,1.48s-1.06.53-1.78.53c-.91,0-1.63-.28-2.17-.84s-.8-1.35-.8-2.36.27-1.86.81-2.44,1.24-.87,2.1-.87,1.51.28,2.04.85.79,1.36.79,2.39c0,.06,0,.16,0,.28h-4.64c.04.68.23,1.21.58,1.57s.78.54,1.3.54c.39,0,.72-.1.99-.3s.49-.53.65-.97ZM275.22,119.53h3.47c-.05-.52-.18-.92-.4-1.18-.34-.41-.77-.61-1.31-.61-.48,0-.89.16-1.22.49s-.51.76-.55,1.3Z"/>
        <path class="cls-39" d="M281.07,123.24v-6.22h.94v.87c.2-.3.46-.55.78-.74s.69-.28,1.11-.28c.46,0,.84.1,1.13.29s.5.46.62.8c.49-.73,1.13-1.09,1.92-1.09.62,0,1.09.17,1.42.51s.5.87.5,1.58v4.27h-1.05v-3.92c0-.42-.03-.73-.1-.91s-.19-.33-.37-.45-.39-.17-.63-.17c-.44,0-.8.15-1.09.44s-.43.76-.43,1.4v3.62h-1.05v-4.04c0-.47-.09-.82-.26-1.05s-.45-.35-.84-.35c-.3,0-.57.08-.82.23s-.43.38-.55.69-.17.73-.17,1.3v3.23h-1.05Z"/>
        <path class="cls-39" d="M292.02,123.24h-.98v-8.59h1.05v3.06c.45-.56,1.01-.84,1.71-.84.38,0,.75.08,1.09.23s.62.37.84.65.39.62.52,1.01.19.82.19,1.27c0,1.07-.26,1.89-.79,2.47s-1.16.87-1.9.87-1.31-.31-1.73-.92v.78ZM292,120.08c0,.75.1,1.29.3,1.62.33.54.78.81,1.35.81.46,0,.86-.2,1.2-.6s.5-1,.5-1.79-.16-1.41-.48-1.8-.71-.58-1.17-.58-.86.2-1.2.6-.5.98-.5,1.74Z"/>
        <path class="cls-39" d="M297.67,123.24v-8.59h1.05v8.59h-1.05Z"/>
        <path class="cls-39" d="M300.29,125.64l-.12-.99c.23.06.43.09.6.09.23,0,.42-.04.56-.12s.26-.19.35-.33c.07-.11.17-.37.32-.79.02-.06.05-.14.09-.26l-2.36-6.23h1.14l1.29,3.6c.17.46.32.94.45,1.44.12-.48.27-.96.43-1.42l1.33-3.63h1.05l-2.37,6.33c-.25.68-.45,1.15-.59,1.41-.19.35-.4.6-.64.76s-.53.24-.87.24c-.2,0-.43-.04-.68-.13Z"/>
      </g>
    </g>
    <g>
      <path class="cls-25" d="M173.12,164.07c0-5.26,4.3-9.52,9.6-9.52h38.4c5.3,0,9.6,4.26,9.6,9.52v38.57c0,5.26-4.3,9.52-9.6,9.52h-38.4c-5.3,0-9.6-4.26-9.6-9.52v-38.57Z"/>
      <text class="cls-33" transform="translate(187.61 172.15)"><tspan x="0" y="0">Read</tspan><tspan x="-2.66" y="14.4">Based</tspan><tspan x="-7.95" y="28.8">Analysis</tspan></text>
    </g>
    <g>
      <circle class="cls-30" cx="46.5" cy="105.64" r="28.8"/>
      <g>
        <line class="cls-17" x1="33.12" y1="91.84" x2="53.08" y2="91.84"/>
        <line class="cls-17" x1="25.52" y1="101.44" x2="45.48" y2="101.44"/>
        <line class="cls-17" x1="25.52" y1="114.24" x2="45.48" y2="114.24"/>
        <line class="cls-17" x1="45.52" y1="107.04" x2="65.48" y2="107.04"/>
        <line class="cls-17" x1="43.52" y1="119.44" x2="63.48" y2="119.44"/>
        <line class="cls-17" x1="47.52" y1="98.24" x2="67.48" y2="98.24"/>
      </g>
    </g>
    <text class="cls-34" transform="translate(31.55 147.67)"><tspan x="0" y="0">Raw</tspan><tspan x="-6.63" y="18">Reads</tspan></text>
    <g>
      <path class="cls-25" d="M95.41,86.36c0-5.26,4.3-9.52,9.6-9.52h38.4c5.3,0,9.6,4.26,9.6,9.52v38.57c0,5.26-4.3,9.52-9.6,9.52h-38.4c-5.3,0-9.6-4.26-9.6-9.52v-38.57Z"/>
      <text class="cls-33" transform="translate(106.25 94.44)"><tspan x="0" y="0">NMDC</tspan><tspan x="0" y="14.4">MetaG</tspan><tspan x="-8.31" y="28.8">ReadsQC</tspan></text>
    </g>
    <g>
      <path class="cls-25" d="M407.49,45.77c0-5.26,4.3-9.52,9.6-9.52h38.4c5.3,0,9.6,4.26,9.6,9.52v38.57c0,5.26-4.3,9.52-9.6,9.52h-38.4c-5.3,0-9.6-4.26-9.6-9.52v-38.57Z"/>
      <g>
        <path class="cls-39" d="M419.25,61.05v-8.59h1.17l4.51,6.74v-6.74h1.09v8.59h-1.17l-4.51-6.75v6.75h-1.09Z"/>
        <path class="cls-39" d="M427.87,61.05v-8.59h1.71l2.03,6.08c.19.57.32.99.41,1.27.1-.31.25-.77.46-1.38l2.06-5.98h1.53v8.59h-1.1v-7.19l-2.5,7.19h-1.03l-2.48-7.31v7.31h-1.1Z"/>
        <path class="cls-39" d="M437.88,61.05v-8.59h2.96c.67,0,1.18.04,1.53.12.49.11.91.32,1.26.62.45.38.79.87,1.02,1.47s.34,1.28.34,2.04c0,.65-.08,1.23-.23,1.73s-.35.92-.59,1.25-.5.59-.78.78-.62.33-1.03.43-.86.15-1.38.15h-3.1ZM439.01,60.04h1.83c.57,0,1.01-.05,1.33-.16s.58-.25.77-.45c.27-.27.48-.63.63-1.09s.23-1.01.23-1.66c0-.9-.15-1.59-.44-2.07s-.65-.81-1.08-.97c-.3-.12-.79-.18-1.47-.18h-1.8v6.56Z"/>
        <path class="cls-39" d="M452.65,58.04l1.14.29c-.24.93-.67,1.65-1.29,2.14s-1.38.74-2.27.74-1.68-.19-2.26-.57-1.02-.92-1.32-1.64-.45-1.48-.45-2.3c0-.89.17-1.67.51-2.34s.83-1.17,1.46-1.52,1.33-.52,2.08-.52c.86,0,1.58.22,2.17.66s.99,1.05,1.22,1.85l-1.12.26c-.2-.62-.49-1.08-.87-1.37s-.86-.43-1.43-.43c-.66,0-1.21.16-1.66.47s-.75.74-.93,1.27-.27,1.08-.27,1.65c0,.73.11,1.37.32,1.91s.54.95.99,1.22.94.4,1.46.4c.64,0,1.18-.18,1.62-.55s.74-.91.9-1.63Z"/>
        <path class="cls-39" d="M407.7,75.45l3.3-8.59h1.22l3.52,8.59h-1.29l-1-2.6h-3.59l-.94,2.6h-1.21ZM410.17,71.93h2.91l-.9-2.38c-.27-.72-.48-1.32-.61-1.78-.11.55-.26,1.1-.46,1.64l-.94,2.52Z"/>
        <path class="cls-39" d="M416.49,75.45v-6.22h.95v.88c.46-.68,1.12-1.03,1.98-1.03.38,0,.72.07,1.03.2s.55.31.71.53.27.48.33.78c.04.2.06.54.06,1.03v3.83h-1.05v-3.79c0-.43-.04-.75-.12-.96s-.23-.38-.44-.51-.45-.19-.74-.19c-.45,0-.84.14-1.16.43s-.49.83-.49,1.62v3.4h-1.05Z"/>
        <path class="cls-39" d="M423.13,75.45v-6.22h.95v.88c.46-.68,1.12-1.03,1.98-1.03.38,0,.72.07,1.03.2s.55.31.71.53.27.48.33.78c.04.2.06.54.06,1.03v3.83h-1.05v-3.79c0-.43-.04-.75-.12-.96s-.23-.38-.44-.51-.45-.19-.74-.19c-.45,0-.84.14-1.16.43s-.49.83-.49,1.62v3.4h-1.05Z"/>
        <path class="cls-39" d="M429.39,72.34c0-1.15.32-2.01.96-2.56.54-.46,1.19-.69,1.96-.69.86,0,1.55.28,2.1.84s.81,1.33.81,2.32c0,.8-.12,1.43-.36,1.89s-.59.82-1.05,1.07-.96.38-1.5.38c-.87,0-1.58-.28-2.11-.84s-.81-1.36-.81-2.41ZM430.48,72.34c0,.8.17,1.39.52,1.79s.79.59,1.31.59.96-.2,1.31-.6.52-1.01.52-1.82c0-.77-.17-1.35-.52-1.75s-.78-.59-1.3-.59-.96.2-1.31.59-.52.99-.52,1.79Z"/>
        <path class="cls-39" d="M438.74,74.51l.15.93c-.3.06-.56.09-.8.09-.38,0-.68-.06-.89-.18s-.36-.28-.45-.48-.13-.61-.13-1.25v-3.58h-.77v-.82h.77v-1.54l1.05-.63v2.17h1.06v.82h-1.06v3.64c0,.3.02.49.06.58s.1.15.18.21.2.08.36.08c.12,0,.27-.01.46-.04Z"/>
        <path class="cls-39" d="M443.8,74.69c-.39.33-.77.57-1.13.7s-.75.21-1.16.21c-.68,0-1.21-.17-1.58-.5s-.55-.76-.55-1.28c0-.3.07-.58.21-.83s.32-.45.54-.61.48-.27.76-.35c.21-.05.52-.11.94-.16.85-.1,1.48-.22,1.88-.36,0-.14,0-.24,0-.28,0-.43-.1-.73-.3-.91-.27-.24-.67-.36-1.2-.36-.5,0-.86.09-1.1.26s-.41.48-.52.92l-1.03-.14c.09-.44.25-.8.46-1.07s.53-.48.93-.63.88-.22,1.41-.22.96.06,1.29.19.58.28.73.47.27.43.33.72c.04.18.05.5.05.97v1.41c0,.98.02,1.6.07,1.86s.13.51.27.75h-1.1c-.11-.22-.18-.47-.21-.77ZM443.72,72.33c-.38.16-.96.29-1.72.4-.43.06-.74.13-.92.21s-.32.19-.42.34-.15.32-.15.5c0,.28.11.52.32.7s.52.28.93.28.77-.09,1.08-.27.55-.42.7-.73c.11-.24.17-.59.17-1.05v-.39Z"/>
        <path class="cls-39" d="M448.7,74.51l.15.93c-.3.06-.56.09-.8.09-.38,0-.68-.06-.89-.18s-.36-.28-.45-.48-.13-.61-.13-1.25v-3.58h-.77v-.82h.77v-1.54l1.05-.63v2.17h1.06v.82h-1.06v3.64c0,.3.02.49.06.58s.1.15.18.21.2.08.36.08c.12,0,.27-.01.46-.04Z"/>
        <path class="cls-39" d="M449.71,68.08v-1.21h1.05v1.21h-1.05ZM449.71,75.45v-6.22h1.05v6.22h-1.05Z"/>
        <path class="cls-39" d="M451.95,72.34c0-1.15.32-2.01.96-2.56.54-.46,1.19-.69,1.96-.69.86,0,1.55.28,2.1.84s.81,1.33.81,2.32c0,.8-.12,1.43-.36,1.89s-.59.82-1.05,1.07-.96.38-1.5.38c-.87,0-1.58-.28-2.11-.84s-.81-1.36-.81-2.41ZM453.04,72.34c0,.8.17,1.39.52,1.79s.79.59,1.31.59.96-.2,1.31-.6.52-1.01.52-1.82c0-.77-.17-1.35-.52-1.75s-.78-.59-1.3-.59-.96.2-1.31.59-.52.99-.52,1.79Z"/>
        <path class="cls-39" d="M459,75.45v-6.22h.95v.88c.46-.68,1.12-1.03,1.98-1.03.38,0,.72.07,1.03.2s.55.31.71.53.27.48.33.78c.04.2.06.54.06,1.03v3.83h-1.05v-3.79c0-.43-.04-.75-.12-.96s-.23-.38-.44-.51-.45-.19-.74-.19c-.45,0-.84.14-1.16.43s-.49.83-.49,1.62v3.4h-1.05Z"/>
      </g>
    </g>
    <g>
      <path class="cls-25" d="M407.49,110.57c0-5.26,4.3-9.52,9.6-9.52h38.4c5.3,0,9.6,4.26,9.6,9.52v38.57c0,5.26-4.3,9.52-9.6,9.52h-38.4c-5.3,0-9.6-4.26-9.6-9.52v-38.57Z"/>
      <g>
        <path class="cls-39" d="M419.25,125.85v-8.59h1.17l4.51,6.74v-6.74h1.09v8.59h-1.17l-4.51-6.75v6.75h-1.09Z"/>
        <path class="cls-39" d="M427.87,125.85v-8.59h1.71l2.03,6.08c.19.57.32.99.41,1.27.1-.31.25-.77.46-1.38l2.06-5.98h1.53v8.59h-1.1v-7.19l-2.5,7.19h-1.03l-2.48-7.31v7.31h-1.1Z"/>
        <path class="cls-39" d="M437.88,125.85v-8.59h2.96c.67,0,1.18.04,1.53.12.49.11.91.32,1.26.62.45.38.79.87,1.02,1.47s.34,1.28.34,2.04c0,.65-.08,1.23-.23,1.73s-.35.92-.59,1.25-.5.59-.78.78-.62.33-1.03.43-.86.15-1.38.15h-3.1ZM439.01,124.84h1.83c.57,0,1.01-.05,1.33-.16s.58-.25.77-.45c.27-.27.48-.63.63-1.09s.23-1.01.23-1.66c0-.9-.15-1.59-.44-2.07s-.65-.81-1.08-.97c-.3-.12-.79-.18-1.47-.18h-1.8v6.56Z"/>
        <path class="cls-39" d="M452.65,122.84l1.14.29c-.24.93-.67,1.65-1.29,2.14s-1.38.74-2.27.74-1.68-.19-2.26-.57-1.02-.92-1.32-1.64-.45-1.48-.45-2.3c0-.89.17-1.67.51-2.34s.83-1.17,1.46-1.52,1.33-.52,2.08-.52c.86,0,1.58.22,2.17.66s.99,1.05,1.22,1.85l-1.12.26c-.2-.62-.49-1.08-.87-1.37s-.86-.43-1.43-.43c-.66,0-1.21.16-1.66.47s-.75.74-.93,1.27-.27,1.08-.27,1.65c0,.73.11,1.37.32,1.91s.54.95.99,1.22.94.4,1.46.4c.64,0,1.18-.18,1.62-.55s.74-.91.9-1.63Z"/>
        <path class="cls-39" d="M419.55,140.25v-8.59h1.71l2.03,6.08c.19.57.32.99.41,1.27.1-.31.25-.77.46-1.38l2.06-5.98h1.53v8.59h-1.1v-7.19l-2.5,7.19h-1.03l-2.48-7.31v7.31h-1.1Z"/>
        <path class="cls-39" d="M428.62,140.25l3.3-8.59h1.22l3.52,8.59h-1.29l-1-2.6h-3.59l-.94,2.6h-1.21ZM431.1,136.73h2.91l-.9-2.38c-.27-.72-.48-1.32-.61-1.78-.11.55-.26,1.1-.46,1.64l-.94,2.52Z"/>
        <path class="cls-39" d="M441.56,136.88v-1.01h3.64s0,3.18,0,3.18c-.56.45-1.13.78-1.73,1s-1.2.34-1.83.34c-.84,0-1.61-.18-2.3-.54s-1.21-.88-1.56-1.57-.53-1.45-.53-2.29.17-1.62.52-2.34.85-1.26,1.51-1.61,1.41-.53,2.27-.53c.62,0,1.18.1,1.68.3s.9.48,1.18.84.5.83.65,1.41l-1.03.28c-.13-.44-.29-.78-.48-1.03s-.46-.45-.82-.6-.75-.23-1.18-.23c-.52,0-.97.08-1.35.24s-.68.37-.92.62-.41.54-.54.85c-.22.53-.33,1.11-.33,1.73,0,.77.13,1.41.4,1.92s.65.9,1.15,1.15,1.04.38,1.61.38c.49,0,.97-.09,1.44-.28s.82-.39,1.07-.61v-1.6h-2.53Z"/>
        <path class="cls-39" d="M446.46,137.49l1.07-.09c.05.43.17.78.35,1.06s.47.5.86.67.83.25,1.32.25c.43,0,.82-.06,1.15-.19s.58-.31.74-.53.24-.47.24-.74-.08-.5-.23-.71-.41-.37-.77-.51c-.23-.09-.74-.23-1.53-.42s-1.34-.37-1.66-.54c-.41-.21-.72-.48-.92-.8s-.3-.67-.3-1.07c0-.43.12-.84.37-1.22s.61-.66,1.08-.86,1-.29,1.58-.29c.64,0,1.2.1,1.68.31s.86.51,1.12.91.4.85.42,1.35l-1.09.08c-.06-.54-.26-.95-.59-1.23s-.84-.42-1.5-.42-1.19.13-1.5.38-.47.56-.47.91c0,.31.11.56.33.76.22.2.79.4,1.71.61s1.56.39,1.9.55c.5.23.87.52,1.11.88s.36.76.36,1.22-.13.89-.39,1.29-.64.72-1.13.94-1.04.34-1.66.34c-.78,0-1.43-.11-1.95-.34s-.94-.57-1.24-1.02-.46-.97-.47-1.54Z"/>
      </g>
    </g>
    <g>
      <circle class="cls-30" cx="201.92" cy="105.64" r="28.8"/>
      <g>
        <line class="cls-17" x1="188.54" y1="91.84" x2="208.5" y2="91.84"/>
        <line class="cls-17" x1="180.94" y1="101.44" x2="200.9" y2="101.44"/>
        <line class="cls-17" x1="180.94" y1="114.24" x2="200.9" y2="114.24"/>
        <line class="cls-17" x1="200.94" y1="107.04" x2="220.9" y2="107.04"/>
        <line class="cls-17" x1="198.94" y1="119.44" x2="218.9" y2="119.44"/>
        <line class="cls-17" x1="202.94" y1="98.24" x2="222.9" y2="98.24"/>
      </g>
    </g>
    <path class="cls-27" d="M91.59,105.98l-12.16,5.44c-.25.11-.52-.07-.52-.34v-10.88c0-.27.28-.45.52-.34l12.16,5.44c.29.13.29.55,0,.68Z"/>
    <path class="cls-27" d="M169.3,105.98l-12.16,5.44c-.25.11-.52-.07-.52-.34v-10.88c0-.27.28-.45.52-.34l12.16,5.44c.29.13.29.55,0,.68Z"/>
    <text class="cls-34" transform="translate(182.41 53.61)"><tspan x="0" y="0">Clean</tspan><tspan x="-2.08" y="18">Reads</tspan></text>
    <g>
      <circle class="cls-30" cx="279.62" cy="183.35" r="28.8"/>
      <g>
        <line class="cls-3" x1="266.24" y1="169.35" x2="286.2" y2="169.35"/>
        <line class="cls-11" x1="258.64" y1="178.95" x2="278.6" y2="178.95"/>
        <line class="cls-10" x1="258.64" y1="191.75" x2="278.6" y2="191.75"/>
        <line class="cls-8" x1="278.64" y1="184.95" x2="298.6" y2="184.95"/>
        <line class="cls-17" x1="276.64" y1="197.35" x2="296.6" y2="197.35"/>
        <line class="cls-12" x1="280.64" y1="175.75" x2="300.6" y2="175.75"/>
      </g>
    </g>
    <text class="cls-34" transform="translate(244.77 225.38)"><tspan x="0" y="0">Taxonomy</tspan><tspan x="-21.08" y="18">Classified Reads</tspan></text>
    <path class="cls-27" d="M201.58,150.73l-5.44-12.16c-.11-.25.07-.52.34-.52h10.88c.27,0,.45.28.34.52l-5.44,12.16c-.13.29-.55.29-.68,0Z"/>
    <text class="cls-34" transform="translate(333.29 31.02)"><tspan x="0" y="0">Contigs</tspan></text>
    <g>
      <circle class="cls-30" cx="358.58" cy="65.05" r="28.8"/>
      <g>
        <line class="cls-15" x1="338.4" y1="65.05" x2="378.77" y2="65.05"/>
        <line class="cls-15" x1="338.4" y1="73.55" x2="378.77" y2="73.55"/>
        <line class="cls-15" x1="338.4" y1="56.55" x2="378.77" y2="56.55"/>
      </g>
    </g>
    <path class="cls-27" d="M247,105.98l-12.16,5.44c-.25.11-.52-.07-.52-.34v-10.88c0-.27.28-.45.52-.34l12.16,5.44c.29.13.29.55,0,.68Z"/>
    <text class="cls-34" transform="translate(331.59 171.88)"><tspan x="0" y="0">Mapped</tspan><tspan x="-7.46" y="18">SAM/BAM</tspan></text>
    <g>
      <circle class="cls-30" cx="358.58" cy="129.85" r="28.8"/>
      <line class="cls-31" x1="363.91" y1="117.56" x2="378.33" y2="117.56"/>
      <line class="cls-31" x1="366.81" y1="121.16" x2="378.25" y2="121.16"/>
      <g>
        <line class="cls-31" x1="339.63" y1="117.56" x2="354.41" y2="117.56"/>
        <line class="cls-31" x1="344.48" y1="121.23" x2="359.26" y2="121.23"/>
        <line class="cls-31" x1="341.39" y1="124.9" x2="353.19" y2="124.9"/>
        <line class="cls-31" x1="346.76" y1="128.58" x2="361.53" y2="128.58"/>
      </g>
      <line class="cls-31" x1="352.27" y1="143.3" x2="372.43" y2="143.3"/>
      <line class="cls-31" x1="352.91" y1="146.9" x2="365.95" y2="146.9"/>
      <line class="cls-31" x1="353.66" y1="150.5" x2="362.73" y2="150.5"/>
      <line class="cls-32" x1="338.59" y1="113.96" x2="378.57" y2="113.96"/>
      <line class="cls-32" x1="345.79" y1="139.7" x2="372.83" y2="139.7"/>
    </g>
    <g>
      <circle class="cls-30" cx="514.25" cy="65.05" r="28.8"/>
      <line class="cls-20" x1="485.19" y1="64.34" x2="543.3" y2="64.34"/>
      <polygon class="cls-28" points="489.24 56.59 504.24 56.59 506.74 59.09 504.24 61.59 489.24 61.59 489.24 56.59"/>
      <polygon class="cls-5" points="489.24 56.59 504.24 56.59 506.74 59.09 504.24 61.59 489.24 61.59 489.24 56.59"/>
      <polygon class="cls-21" points="494.49 68.84 509.49 68.84 511.99 71.34 509.49 73.84 494.49 73.84 494.49 68.84"/>
      <polygon class="cls-2" points="494.49 68.84 509.49 68.84 511.99 71.34 509.49 73.84 494.49 73.84 494.49 68.84"/>
      <polygon class="cls-26" points="519.99 61.34 512.99 61.34 510.49 58.84 512.99 56.34 519.99 56.34 519.99 61.34"/>
      <polygon class="cls-2" points="519.99 61.34 512.99 61.34 510.49 58.84 512.99 56.34 519.99 56.34 519.99 61.34"/>
      <polygon class="cls-22" points="517.99 68.34 525.49 68.34 527.99 70.84 525.49 73.34 517.99 73.34 517.99 68.34"/>
      <polygon class="cls-2" points="517.99 68.34 525.49 68.34 527.99 70.84 525.49 73.34 517.99 73.34 517.99 68.34"/>
      <polygon class="cls-24" points="525.99 56.34 534.99 56.34 537.49 58.84 534.99 61.34 525.99 61.34 525.99 56.34"/>
      <polygon class="cls-2" points="525.99 56.34 534.99 56.34 537.49 58.84 534.99 61.34 525.99 61.34 525.99 56.34"/>
      <polygon class="cls-29" points="510.99 78.34 518.49 78.34 520.99 80.84 518.49 83.34 510.99 83.34 510.99 78.34"/>
      <polygon class="cls-2" points="510.99 78.34 518.49 78.34 520.99 80.84 518.49 83.34 510.99 83.34 510.99 78.34"/>
    </g>
    <path class="cls-27" d="M481.37,65.39l-12.16,5.44c-.25.11-.52-.07-.52-.34v-10.88c0-.27.28-.45.52-.34l12.16,5.44c.29.13.29.55,0,.68Z"/>
    <text class="cls-35" transform="translate(564.41 185.26)"><tspan x="0" y="0">MAGS</tspan></text>
    <path class="cls-27" d="M403.67,130.19l-12.16,5.44c-.25.11-.52-.07-.52-.34v-10.88c0-.27.28-.45.52-.34l12.16,5.44c.29.13.29.55,0,.68Z"/>
    <path class="cls-27" d="M403.67,65.39l-12.16,5.44c-.25.11-.52-.07-.52-.34v-10.88c0-.27.28-.45.52-.34l12.16,5.44c.29.13.29.55,0,.68Z"/>
    <path class="cls-27" d="M481.37,130.19l-12.16,5.44c-.25.11-.52-.07-.52-.34v-10.88c0-.27.28-.45.52-.34l12.16,5.44c.29.13.29.55,0,.68Z"/>
    <g>
      <path class="cls-19" d="M492.94,97.45h-.21c-2.08,0-3.77,2.21-3.77,4.95v22.51c0,2.73-1.69,4.95-3.77,4.95,2.08,0,3.77,2.21,3.77,4.95v22.51c0,2.73,1.69,4.95,3.77,4.95h.21"/>
      <text class="cls-36" transform="translate(640.53 168.45)"><tspan x="0" y="0">LQ</tspan></text>
      <text class="cls-37" transform="translate(517.19 168.45)"><tspan x="0" y="0">HQ</tspan></text>
      <text class="cls-38" transform="translate(577.83 168.45)"><tspan x="0" y="0">MQ</tspan></text>
      <g>
        <circle class="cls-30" cx="647.74" cy="129.85" r="28.8"/>
        <g>
          <line class="cls-4" x1="628.19" y1="120.35" x2="637.79" y2="120.35"/>
          <line class="cls-15" x1="657.69" y1="120.35" x2="667.29" y2="120.35"/>
          <line class="cls-4" x1="632.19" y1="126.85" x2="641.79" y2="126.85"/>
          <line class="cls-16" x1="638.19" y1="148.85" x2="652.59" y2="148.85"/>
          <line class="cls-16" x1="648.19" y1="142.85" x2="657.79" y2="142.85"/>
          <line class="cls-16" x1="635.69" y1="140.35" x2="645.29" y2="140.35"/>
          <line class="cls-4" x1="633.69" y1="110.85" x2="648.09" y2="110.85"/>
          <line class="cls-9" x1="651.69" y1="126.85" x2="666.09" y2="126.85"/>
          <line class="cls-9" x1="653.69" y1="113.35" x2="663.29" y2="113.35"/>
        </g>
      </g>
      <g>
        <circle class="cls-30" cx="525.34" cy="129.85" r="28.8"/>
        <g>
          <line class="cls-14" x1="505.54" y1="120.35" x2="515.14" y2="120.35"/>
          <line class="cls-6" x1="535.54" y1="120.35" x2="545.14" y2="120.35"/>
          <line class="cls-14" x1="510.04" y1="126.35" x2="519.64" y2="126.35"/>
          <line class="cls-7" x1="516.04" y1="148.85" x2="530.44" y2="148.85"/>
          <line class="cls-7" x1="526.04" y1="142.35" x2="535.64" y2="142.35"/>
          <line class="cls-7" x1="513.54" y1="139.85" x2="523.14" y2="139.85"/>
          <line class="cls-14" x1="511.04" y1="110.85" x2="525.44" y2="110.85"/>
          <line class="cls-6" x1="529.04" y1="126.85" x2="543.44" y2="126.85"/>
          <line class="cls-6" x1="531.54" y1="112.85" x2="541.14" y2="112.85"/>
        </g>
      </g>
      <g>
        <path class="cls-23" d="M557.74,129.85c0-15.91,12.89-28.8,28.8-28.8s28.8,12.89,28.8,28.8-12.89,28.8-28.8,28.8c-15.91,0-28.8-12.89-28.8-28.8Z"/>
        <g>
          <line class="cls-13" x1="566.74" y1="120.35" x2="576.34" y2="120.35"/>
          <line class="cls-18" x1="596.74" y1="120.35" x2="606.34" y2="120.35"/>
          <line class="cls-13" x1="571.24" y1="126.85" x2="580.84" y2="126.85"/>
          <line class="cls-1" x1="577.24" y1="148.85" x2="591.64" y2="148.85"/>
          <line class="cls-1" x1="587.24" y1="142.85" x2="596.84" y2="142.85"/>
          <line class="cls-1" x1="574.74" y1="140.35" x2="584.34" y2="140.35"/>
          <line class="cls-13" x1="572.74" y1="110.85" x2="587.14" y2="110.85"/>
          <line class="cls-18" x1="590.74" y1="126.85" x2="605.14" y2="126.85"/>
          <line class="cls-18" x1="592.74" y1="112.85" x2="602.34" y2="112.85"/>
        </g>
      </g>
      <path class="cls-19" d="M680.14,97.45h.21c2.08,0,3.77,2.21,3.77,4.95v22.51c0,2.73,1.69,4.95,3.77,4.95-2.08,0-3.77,2.21-3.77,4.95v22.51c0,2.73-1.69,4.95-3.77,4.95h-.21"/>
    </g>
    <g>
      <path class="cls-27" d="M398.57,97.69l-4.75-12.45c-.1-.25-.42-.32-.61-.13l-7.7,7.7c-.19.19-.12.52.13.61l12.45,4.75c.3.11.6-.18.48-.48Z"/>
      <path class="cls-27" d="M474.01,97.69l4.75-12.45c.1-.25.42-.32.61-.13l7.7,7.7c.19.19.12.52-.13.61l-12.45,4.75c-.3.11-.6-.18-.48-.48Z"/>
    </g>
    <path class="cls-27" d="M247,183.69l-12.16,5.44c-.25.11-.52-.07-.52-.34v-10.88c0-.27.28-.45.52-.34l12.16,5.44c.29.13.29.55,0,.68Z"/>
  </g>
</svg>